<?xml version="1.0" encoding="utf-8"?>
<!-- Generator: Adobe Illustrator 12.0.0, SVG Export Plug-In . SVG Version: 6.00 Build 51448)  -->
<!DOCTYPE svg PUBLIC "-//W3C//DTD SVG 1.1//EN" "http://www.w3.org/Graphics/SVG/1.1/DTD/svg11.dtd" [
	<!ENTITY ns_svg "http://www.w3.org/2000/svg">
	<!ENTITY ns_xlink "http://www.w3.org/1999/xlink">
]>
<svg  version="1.1" id="レイヤー_1" xmlns="&ns_svg;" xmlns:xlink="&ns_xlink;" width="184.585" height="298.667"
	 viewBox="0 0 184.585 298.667" overflow="visible" enable-background="new 0 0 184.585 298.667" xml:space="preserve">
<path fill="#5F3811" d="M181.092,247.762c-0.136-0.056-14.403-5.956-28.396-17.99c-18.236-15.69-27.486-33.949-27.486-54.271
	c0-49.017,55.325-72.035,55.883-72.261c1.632-0.662,2.855-2.052,3.307-3.754c0.451-1.701,0.072-3.515-1.017-4.896
	c-0.246-0.313-6.12-7.735-14.424-16.291c-0.601-0.619-1.216-1.244-1.841-1.872c-1.304-1.312-2.609-2.588-3.88-3.797
	c-3.67-3.485-7.228-6.567-10.577-9.161c-1.516-1.174-3.016-2.269-4.462-3.254c-7.111-4.853-13.245-7.39-18.749-7.757
	c-1.212-0.081-2.458-0.122-3.698-0.122c-8.119,0-15.713,1.707-21.951,3.787c1.713-20.788,24.024-36.005,24.257-36.163
	c2.55-1.71,3.26-5.164,1.574-7.729l-6.378-9.709c-0.814-1.24-2.089-2.107-3.543-2.408C119.335,0.038,118.956,0,118.576,0
	c-1.085,0-2.153,0.315-3.074,0.918c-1.376,0.907-33.043,22.09-34.558,55.258c-6.266-2.103-13.921-3.839-22.109-3.84
	c-1.242,0-2.487,0.041-3.702,0.122C33.903,53.874,4.487,90.427,1.202,94.59c-1.09,1.382-1.466,3.195-1.016,4.896
	c0.45,1.702,1.675,3.092,3.306,3.754c0.136,0.056,14.406,5.956,28.396,17.991c18.239,15.69,27.488,33.949,27.488,54.27
	s-9.249,38.58-27.488,54.271c-13.989,12.034-28.259,17.935-28.401,17.992c-1.628,0.664-2.852,2.057-3.299,3.756
	c-0.448,1.701-0.073,3.513,1.015,4.892c0.247,0.313,6.121,7.737,14.425,16.291c0.602,0.62,1.215,1.246,1.84,1.872
	c1.304,1.311,2.609,2.588,3.882,3.798c3.667,3.483,7.226,6.566,10.577,9.16c1.517,1.175,3.017,2.27,4.46,3.254
	c7.113,4.853,13.246,7.391,18.748,7.758c1.213,0.081,2.458,0.122,3.701,0.122c14.797,0,27.848-5.719,33.458-8.585
	c5.607,2.865,18.661,8.585,33.458,8.585c1.243,0,2.486-0.041,3.702-0.122c21.23-1.414,50.644-37.968,53.929-42.133
	c1.089-1.38,1.468-3.194,1.017-4.896C183.947,249.814,182.724,248.423,181.092,247.762z"/>
<g id="XMLID_254_">
	<g>
		<path fill="#B28B67" d="M118.004,8.554l4.085,6.225c-6.044,4.532-26.09,21.292-26.09,43.855v4.365
			c-1.608,0.755-2.882,1.427-3.707,1.875c-0.825-0.448-2.099-1.119-3.707-1.875v-4.365C88.585,31.971,111.415,13.366,118.004,8.554z
			"/>
	</g>
	<g>
	</g>
</g>
<g id="XMLID_253_">
	<g>
		<path fill="#EA8B8B" d="M159.789,79.996c5.624,5.498,10.52,10.996,13.695,14.717c-5.05-0.923-12.954-1.987-22.592-1.987
			c-15.15,0-37.505,2.756-58.601,15.766c-21.109-13.01-43.45-15.766-58.6-15.766c-9.639,0-17.542,1.063-22.592,1.987
			c3.175-3.721,8.043-9.191,13.653-14.675c12.8-12.534,23.487-19.403,30.888-19.906c1.049-0.07,2.126-0.098,3.189-0.098
			c17.165,0,32.231,8.967,32.371,9.051c0.671,0.405,1.511,0.405,2.182,0c0.141-0.084,15.206-9.051,32.371-9.051
			c1.063,0,2.141,0.028,3.189,0.098C136.344,60.635,147.018,67.503,159.789,79.996z"/>
		<path fill="#EA8B8B" d="M173.484,256.3c-3.176,3.721-8.071,9.204-13.695,14.702c-12.771,12.506-23.445,19.375-30.846,19.864
			c-1.049,0.07-2.126,0.112-3.189,0.112c-17.165,0-32.23-8.967-32.371-9.065c-0.335-0.195-0.713-0.294-1.091-0.294
			c-0.378,0-0.755,0.099-1.091,0.294c-0.14,0.099-15.206,9.065-32.371,9.065c-1.063,0-2.14-0.042-3.189-0.112
			c-7.4-0.489-18.074-7.358-30.846-19.864c-5.624-5.498-10.52-10.981-13.695-14.702c5.05,0.909,12.954,1.972,22.592,1.972
			c15.15,0,37.491-2.756,58.6-15.751c21.109,12.995,43.45,15.751,58.601,15.751C160.53,258.272,168.435,257.209,173.484,256.3z"/>
	</g>
	<g>
	</g>
</g>
<g id="XMLID_252_">
	<g>
		<path fill="#FAF393" d="M150.893,96.922c9.148,0,16.744,1.007,21.641,1.889c-15.066,7.764-55.019,32.539-55.019,76.688
			c0,44.163,39.952,68.924,55.019,76.688c-4.896,0.882-12.506,1.889-21.641,1.889c-14.856,0-36.89-2.742-57.481-15.808
			c-0.686-0.434-1.553-0.434-2.238,0c-20.578,13.065-42.611,15.808-57.481,15.808c-9.149,0-16.745-1.007-21.641-1.889
			c15.066-7.764,55.019-32.524,55.019-76.688c0-44.15-39.953-68.925-55.019-76.688c4.896-0.867,12.492-1.889,21.641-1.889
			c14.87,0,36.903,2.742,57.481,15.808c0.336,0.224,0.728,0.336,1.119,0.336s0.783-0.112,1.119-0.336
			C113.989,99.665,136.021,96.922,150.893,96.922z"/>
	</g>
	<g>
	</g>
</g>
</svg>
