<?xml version="1.0" encoding="utf-8"?>
<!-- Generator: Adobe Illustrator 12.0.0, SVG Export Plug-In . SVG Version: 6.00 Build 51448)  -->
<!DOCTYPE svg PUBLIC "-//W3C//DTD SVG 1.1//EN" "http://www.w3.org/Graphics/SVG/1.1/DTD/svg11.dtd" [
	<!ENTITY ns_svg "http://www.w3.org/2000/svg">
	<!ENTITY ns_xlink "http://www.w3.org/1999/xlink">
]>
<svg  version="1.1" id="レイヤー_1" xmlns="&ns_svg;" xmlns:xlink="&ns_xlink;" width="297.64" height="241.973"
	 viewBox="0 0 297.64 241.973" overflow="visible" enable-background="new 0 0 297.64 241.973" xml:space="preserve">
<path fill="#5F3811" d="M296.463,215.526c-2.604-6.699-9.111-12.616-20.961-18.764c5.854-1.97,11.048-4.89,13.16-9.214
	c1.942-3.978,2.064-8.151,0.354-12.07c-5.368-12.302-27.65-19.86-58.543-29.192c-3.157-0.954-6.25-1.889-9.214-2.807
	c-15.774-4.892-26.275-15.213-31.22-30.682c-0.074-3.517-0.024-7.105,0.148-10.678c0.9-18.452-2.23-34.738-9.057-47.109
	c-3.744-7.572-9.049-13.406-15.518-17.116c2.306-7.063,4.85-12.945,6.718-16.887c3.082-6.5,0.719-14.164-5.495-17.822l-2.153-1.268
	C162.553,0.663,160.126,0,157.663,0c-5.298,0-10.197,3.083-12.476,7.856c-3.108,6.503-7.379,16.601-10.649,28.74
	c-7.495,3.543-13.801,9.935-17.96,18.277c-6.873,12.388-10.029,28.722-9.125,47.246c0.174,3.573,0.224,7.161,0.149,10.68
	c-4.945,15.466-15.445,25.788-31.222,30.68c-2.963,0.918-6.056,1.853-9.213,2.807c-30.892,9.332-53.173,16.891-58.542,29.192
	c-1.711,3.919-1.588,8.093,0.355,12.07c2.112,4.324,7.304,7.244,13.158,9.214c-11.851,6.147-18.356,12.064-20.961,18.764
	c-1.772,4.559-1.539,9.41,0.675,14.032c5.365,11.206,26.559,12.415,35.422,12.415c21.343,0,44.841-5.798,64.473-15.899
	c20.972-10.799,37.045-26.173,47.074-44.893c10.026,18.72,26.1,34.092,47.074,44.889c19.631,10.105,43.129,15.903,64.472,15.903
	c8.864,0,30.059-1.209,35.423-12.415C298.001,224.936,298.236,220.084,296.463,215.526z"/>
<g id="XMLID_256_">
	<g>
		<path fill="#EFE086" d="M282.059,178.505c0.813,1.876,0.744,3.738-0.221,5.711c-1.67,3.42-10.538,6.938-23.849,8.455
			c-7.448-2.979-15.338-5.779-22.911-8.47c-3.352-1.186-6.634-2.358-9.793-3.503c-15.793-5.752-33.71-20.056-37.849-54.883
			c6.676,11.973,17.324,20.497,31.573,24.911c2.993,0.924,6.097,1.862,9.269,2.827C250.292,160.202,277.686,168.478,282.059,178.505
			z"/>
		<path fill="#EFE086" d="M78.622,150.726c14.249-4.414,24.897-12.938,31.586-24.911c-4.138,34.828-22.069,49.131-37.848,54.883
			c-3.159,1.145-6.441,2.317-9.807,3.503c-7.572,2.69-15.448,5.49-22.911,8.47c-13.296-1.518-22.179-5.035-23.848-8.455
			c-0.966-1.973-1.035-3.835-0.221-5.711c4.386-10.027,31.779-18.304,53.78-24.952C72.54,152.588,75.643,151.65,78.622,150.726z"/>
	</g>
	<g>
	</g>
</g>
<g id="XMLID_255_">
	<g>
		<path fill="#FAF393" d="M289.3,218.064c1.117,2.69,1.007,5.38-0.359,8.222c-1.931,4.027-11.503,8.096-28.565,8.096h-0.014
			c-29.021,0-89.297-14.041-109.614-67.2l-1.931-5.048l-1.931,5.048c-20.317,53.159-80.58,67.2-109.614,67.2
			c-17.063,0-26.648-4.068-28.58-8.096c-1.352-2.842-1.476-5.531-0.359-8.222c4.952-11.985,33.035-21.958,55.614-29.958
			c3.366-1.2,6.662-2.373,9.834-3.518c20.29-7.394,43.932-27.766,41.242-82.842c-1.42-29.38,8.345-52.566,24.883-59.063l0.993-0.386
			l0.262-1.035c3.186-12.772,7.669-23.448,10.869-30.138c1.049-2.179,3.2-3.545,5.628-3.545c1.117,0,2.207,0.304,3.173,0.869
			l2.151,1.269c2.813,1.655,3.89,5.117,2.497,8.042c-2.387,5.021-5.808,13.035-8.566,22.607l-0.51,1.779l1.71,0.704
			c16.304,6.704,25.918,29.821,24.497,58.897c-2.689,55.076,20.952,75.448,41.255,82.842c3.173,1.145,6.47,2.317,9.835,3.518
			C256.265,196.106,284.361,206.079,289.3,218.064z"/>
	</g>
	<g>
	</g>
</g>
</svg>
