<?xml version="1.0" encoding="utf-8"?>
<!-- Generator: Adobe Illustrator 12.0.0, SVG Export Plug-In . SVG Version: 6.00 Build 51448)  -->
<!DOCTYPE svg PUBLIC "-//W3C//DTD SVG 1.1//EN" "http://www.w3.org/Graphics/SVG/1.1/DTD/svg11.dtd" [
	<!ENTITY ns_svg "http://www.w3.org/2000/svg">
	<!ENTITY ns_xlink "http://www.w3.org/1999/xlink">
]>
<svg  version="1.1" id="レイヤー_1" xmlns="&ns_svg;" xmlns:xlink="&ns_xlink;" width="219.112" height="291.369"
	 viewBox="0 0 219.112 291.369" overflow="visible" enable-background="new 0 0 219.112 291.369" xml:space="preserve">
<path fill="#FAF393" d="M210.675,214.189c4.754-49.352,9.273-127.059-98.96-193.63c0,0-33.41-17.255-53.122,4.948
	c-19.71,22.205-2.801,42.834,5.124,50.262c7.925,7.426,55.114,41.35,68.269,100.428c7.354,33.027-12.488,81.547,20.974,103.721
	C152.959,279.918,201.338,311.119,210.675,214.189"/>
<path fill="#5F3811" d="M217.403,214.189c2.781-29.066,2.937-58.045-5.444-86.299c-12.022-40.528-40.627-72.625-73.822-97.598
	c-13.65-10.271-26.746-19.348-43.801-22.073C73.731,4.927,54.742,13.755,45.77,33.03c-14.528,31.209,20.208,51.75,38.243,70.483
	c25.605,26.595,43.811,60.958,42.955,98.461c-0.649,28.518-6.312,66.834,23.08,84.043c10.177,5.961,23.217,7.25,34.015,2.303
	C210.141,276.371,214.868,238.896,217.403,214.189c0.886-8.631-12.579-8.545-13.456,0c-2.095,20.426-7.465,66.785-37.564,63.568
	c-3.943-0.422-6.78-1.66-9.947-3.6c-17.506-10.721-17.432-34.055-16.855-52.055c0.688-21.541,1.656-41.123-5.062-61.939
	c-6.517-20.193-17.687-38.459-30.978-54.863C94.398,94.016,83.804,84.049,72.735,74.69c-13.97-11.812-22.88-28.021-9.383-44.424
	c15.321-18.622,41.163-6.718,56.962,3.83c25.645,17.12,48.661,38.781,64.563,65.365c21.08,35.243,22.879,74.943,19.07,114.728
	C203.121,222.826,216.585,222.746,217.403,214.189"/>
<path fill="#5F3811" d="M56.25,14.084c8.559,3.129,11.973,10.663,7.631,16.828c-4.345,6.167-14.799,8.627-23.355,5.499L5.113,23.459
	c-8.557-3.129-4.728-9.42-0.387-15.584c4.344-6.167,7.556-9.87,16.112-6.742L56.25,14.084z"/>
<path fill="#5F3811" d="M62.741,40.169c-0.751-0.306-1.593-0.696,0.118,0.074c1.451,0.653,2.884,1.354,4.308,2.066
	c5.354,2.684,10.528,5.725,15.573,8.947c16.734,10.693,31.591,24.146,44.27,39.407c44.791,53.918,47.873,126.363,30.934,191.736
	c-2.18,8.408,10.8,11.973,12.975,3.578c17.977-69.371,13.651-143.014-31.42-201.125c-18.658-24.056-44.689-46.064-73.179-57.658
	C58.278,23.923,54.814,36.945,62.741,40.169"/>
<path fill="#5F3811" d="M168.446,264.217c7.928-0.619,14.687,3.199,15.092,8.533c0.404,5.336-5.692,10.162-13.62,10.783
	c-7.931,0.621-14.688-3.199-15.095-8.533C154.417,269.664,160.515,264.84,168.446,264.217"/>
</svg>
