<?xml version="1.0" encoding="utf-8"?>
<!-- Generator: Adobe Illustrator 12.0.0, SVG Export Plug-In . SVG Version: 6.00 Build 51448)  -->
<!DOCTYPE svg PUBLIC "-//W3C//DTD SVG 1.1//EN" "http://www.w3.org/Graphics/SVG/1.1/DTD/svg11.dtd" [
	<!ENTITY ns_svg "http://www.w3.org/2000/svg">
	<!ENTITY ns_xlink "http://www.w3.org/1999/xlink">
]>
<svg  version="1.1" id="レイヤー_1" xmlns="&ns_svg;" xmlns:xlink="&ns_xlink;" width="297.91" height="211.644"
	 viewBox="0 0 297.91 211.644" overflow="visible" enable-background="new 0 0 297.91 211.644" xml:space="preserve">
<g id="XMLID_100_">
	<path id="XMLID_911_" fill="#F9C587" d="M148.711,3.413c-130.022,0-113.609,82.646-113.609,82.646h113.609h113.607
		C262.318,86.059,278.73,3.413,148.711,3.413z"/>
</g>
<g id="XMLID_98_">
	<path id="XMLID_828_" fill="#5F3811" d="M262.318,89.472H35.102c-2.395,0-4.423-1.252-4.758-2.937
		c-0.29-1.461-6.753-36.083,24.173-61.37C74.938,8.467,106.63,0,148.711,0c42.08,0,73.77,8.467,94.193,25.166
		c30.925,25.286,24.463,59.908,24.173,61.37C266.741,88.22,264.712,89.472,262.318,89.472z M39.484,82.645h218.445
		c0.762-8.578,0.805-34.166-22.333-53.047c-18.519-15.109-47.751-22.771-86.885-22.771c-39.174,0-68.424,7.678-86.941,22.817
		C38.622,48.572,38.704,74.083,39.484,82.645z"/>
</g>
<g id="XMLID_97_">
	<path id="XMLID_909_" fill="#B55959" d="M292.615,139.368c0,11.906-13.564,21.56-30.297,21.56H35.102
		c-16.729,0-30.296-9.653-30.296-21.56v-0.31c0-11.906,13.567-21.559,30.296-21.559h227.217c16.732,0,30.297,9.652,30.297,21.559
		V139.368z"/>
</g>
<g id="XMLID_95_">
	<path id="XMLID_825_" fill="#5F3811" d="M262.318,164.341H35.102C15.746,164.341,0,153.139,0,139.368v-0.309
		c0-13.771,15.746-24.973,35.102-24.973h227.217c19.356,0,35.102,11.202,35.102,24.973v0.309
		C297.42,153.139,281.675,164.341,262.318,164.341z M35.102,120.914c-14.055,0-25.491,8.14-25.491,18.146v0.309
		c0,10.005,11.436,18.146,25.491,18.146h227.217c14.056,0,25.492-8.141,25.492-18.146v-0.309c0-10.006-11.437-18.146-25.492-18.146
		H35.102z"/>
</g>
<g id="XMLID_94_">
	<path id="XMLID_907_" fill="#F9C587" d="M262.318,160.928H148.711H35.102c0,0-1.264,47.303,113.609,47.303
		C263.58,208.23,262.318,160.928,262.318,160.928z"/>
</g>
<g id="XMLID_92_">
	<path id="XMLID_822_" fill="#5F3811" d="M148.711,211.644c-46.112,0-79.744-7.422-99.96-22.06
		c-18.641-13.497-18.471-28.105-18.454-28.722c0.05-1.859,2.186-3.349,4.805-3.349h227.217c2.619,0,4.755,1.489,4.804,3.349
		c0.019,0.616,0.188,15.225-18.453,28.722C228.452,204.222,194.822,211.644,148.711,211.644z M40.36,164.341
		c1.037,4.462,4.423,12.696,15.458,20.612c18.376,13.18,49.63,19.863,92.894,19.863c43.436,0,74.756-6.733,93.099-20.014
		c10.828-7.84,14.191-16.023,15.237-20.462H40.36z"/>
</g>
<g id="XMLID_91_">
	<path id="XMLID_905_" fill="#FAF393" d="M260.426,103.127H36.995c-5.576,0-10.098,3.218-10.098,7.186
		c0,3.97,4.521,7.188,10.098,7.188l41.87,30.842L116.31,117.5h144.116c5.579,0,10.1-3.218,10.1-7.188
		C270.525,106.345,266.005,103.127,260.426,103.127z"/>
</g>
<g id="XMLID_90_">
	<path id="XMLID_819_" fill="#5F3811" d="M78.865,151.756c-1.303,0-2.552-0.376-3.458-1.044l-40.609-29.913
		c-7.179-0.759-12.705-5.171-12.705-10.486c0-5.844,6.686-10.599,14.903-10.599h223.431c8.218,0,14.905,4.755,14.905,10.599
		c0,5.846-6.688,10.602-14.905,10.602H118.511l-36.008,29.658c-0.881,0.727-2.154,1.155-3.505,1.183
		C78.954,151.756,78.909,151.756,78.865,151.756z M36.995,106.541c-2.919,0-5.293,1.693-5.293,3.772
		c0,2.081,2.374,3.774,5.293,3.774c1.304,0,2.553,0.376,3.458,1.044l38.213,28.148l34.005-28.009
		c0.914-0.752,2.242-1.184,3.639-1.184h144.116c2.919,0,5.295-1.693,5.295-3.774c0-2.079-2.376-3.772-5.295-3.772H36.995z"/>
</g>
<g id="XMLID_89_">
	<path id="XMLID_904_" fill="#8FDB9B" d="M35.102,86.059c0,0-20.198,3.895-21.88,13.176c-1.685,9.282,18.936,12.876,44.184,8.384
		c25.245-4.492,32.395,4.45,58.485,1.926c26.089-2.526,41.026-2.772,54.595,0.459c13.57,3.229,29.979,2.556,38.501-2.161
		c8.52-4.716,31.557-0.674,43.866,0.899c12.308,1.57,35.344,4.041,39.763-7.412c4.418-11.454-22.09-15.271-30.297-15.271
		C254.114,86.059,35.102,86.059,35.102,86.059z"/>
</g>
<g id="XMLID_87_">
	<path id="XMLID_816_" fill="#5F3811" d="M187.879,115.435c-6.205,0-12.716-0.719-18.92-2.195
		c-12.026-2.863-25.254-2.941-52.42-0.312c-13.16,1.271-22.033-0.212-29.86-1.521c-8.516-1.423-15.873-2.651-28.106-0.478
		c-19.62,3.493-36.914,2.433-45.135-2.76c-3.866-2.442-5.635-5.77-4.981-9.372c2.068-11.411,24.436-15.85,25.387-16.035
		c0.41-0.078,0.833-0.119,1.259-0.119h227.217c6.992,0,24.798,2.31,32.168,9.172c3.262,3.039,4.218,6.641,2.763,10.416
		c-5.752,14.909-34.444,11.247-45.245,9.869c-1.591-0.205-3.358-0.448-5.249-0.708c-10.173-1.405-29.104-4.02-34.814-0.858
		C206.123,113.755,197.36,115.435,187.879,115.435z M147.298,104.189c9.138,0,17.067,0.756,24.714,2.577
		c12.396,2.949,27.023,2.256,34.021-1.616c9.158-5.07,28.461-2.406,42.556-0.458c1.843,0.255,3.565,0.493,5.115,0.689
		c14.36,1.833,31.233,2.927,34.277-4.953c0.669-1.737,0.317-3.115-1.138-4.47c-4.57-4.258-18.396-6.486-24.525-6.486H35.779
		c-5.131,1.097-16.795,4.699-17.792,10.199c-0.251,1.388,0.314,2.436,1.836,3.397c4.591,2.901,17.943,4.526,36.416,1.24
		c14.494-2.579,23.719-1.037,32.642,0.455c7.695,1.285,14.961,2.5,26.361,1.399C127.759,104.951,138.138,104.189,147.298,104.189z"
		/>
</g>
<g id="XMLID_85_">
	<g id="XMLID_86_">
		<path id="XMLID_902_" fill="#FBDFBB" d="M103.411,25.677l-2.81-5.003c1.73-0.494,3.417-0.854,5.047-1.202
			c1.543-0.33,2.996-0.639,4.418-1.044l2.812,5.005c-1.735,0.495-3.422,0.855-5.051,1.202
			C106.285,24.963,104.833,25.273,103.411,25.677z"/>
	</g>
</g>
<g id="XMLID_83_">
	<g id="XMLID_84_">
		<path id="XMLID_901_" fill="#FBDFBB" d="M80.068,47.988l-5.356-3.811c1.168-0.833,2.42-1.468,3.631-2.084
			c1.006-0.511,1.956-0.993,2.68-1.509l5.354,3.811c-1.168,0.832-2.42,1.469-3.63,2.084C81.742,46.99,80.791,47.473,80.068,47.988z"
			/>
	</g>
</g>
<g id="XMLID_79_">
	<g id="XMLID_80_">
		<path id="XMLID_899_" fill="#FBDFBB" d="M150.043,41.36l-0.752-5.363c1.975-0.14,3.951-0.325,5.95-0.515
			c4.43-0.417,9.017-0.845,13.992-0.845v5.39c-4.478,0-8.812,0.406-13.005,0.8C154.155,41.021,152.098,41.213,150.043,41.36z"/>
	</g>
</g>
<g id="XMLID_77_">
	<g id="XMLID_78_">
		<polygon id="XMLID_898_" fill="#FBDFBB" points="175.02,26.036 171.63,21.214 179.206,18.519 182.594,23.34 		"/>
	</g>
</g>
<g id="XMLID_75_">
	<g id="XMLID_76_">
		<path id="XMLID_897_" fill="#FBDFBB" d="M115.368,52.318l-1.482-5.284c2.515-0.359,4.099-0.992,5.287-2.119l6.057,3.234
			C122.921,50.34,119.696,51.703,115.368,52.318z"/>
	</g>
</g>
<g id="XMLID_71_">
	<g id="XMLID_72_">
		<path id="XMLID_895_" fill="#FBDFBB" d="M205.666,44.312l-5.354-3.811c1.176-0.834,1.908-1.383,2.243-2.091l7.183,1.705
			C208.824,42.064,207.078,43.312,205.666,44.312z"/>
	</g>
</g>
<g id="XMLID_67_">
	<g id="XMLID_68_">
		<path id="XMLID_893_" fill="#FBDFBB" d="M151.229,21.926c0.003-0.001,0.12-0.078,0.236-0.24l-6.773-2.411
			c1.109-1.576,3.34-2.302,4.817-2.782c0.23-0.074,0.456-0.146,0.664-0.221l3.387,4.822c-0.28,0.102-0.591,0.2-0.908,0.305
			C152.202,21.545,151.45,21.79,151.229,21.926z"/>
	</g>
</g>
</svg>
