<?xml version="1.0" encoding="utf-8"?>
<!-- Generator: Adobe Illustrator 12.0.0, SVG Export Plug-In . SVG Version: 6.00 Build 51448)  -->
<!DOCTYPE svg PUBLIC "-//W3C//DTD SVG 1.1//EN" "http://www.w3.org/Graphics/SVG/1.1/DTD/svg11.dtd" [
	<!ENTITY ns_svg "http://www.w3.org/2000/svg">
	<!ENTITY ns_xlink "http://www.w3.org/1999/xlink">
]>
<svg  version="1.1" id="レイヤー_1" xmlns="&ns_svg;" xmlns:xlink="&ns_xlink;" width="285.921" height="187.495"
	 viewBox="0 0 285.921 187.495" overflow="visible" enable-background="new 0 0 285.921 187.495" xml:space="preserve">
<path fill="#FFFFFF" d="M207.153,70.567c-62.216,0.872-64.174-91.122-148.62-57.97c-84.139,33.033-55.817,136.475-1.328,162.254
	c18.619,12.633,140.743,5.758,171.133-0.906C305.178,157.098,296.377,69.319,207.153,70.567"/>
<path fill="#5F3811" d="M118.398,187.495h-0.004c-50.515,0-60.599-5.67-63.875-7.848C22.118,164.086-1.273,122.969,0.054,83.854
	C1.251,48.526,21.319,21.429,56.559,7.595C69.556,2.492,81.14,0,91.972,0c28.769,0,45.422,17.509,61.525,34.447
	c15.027,15.805,29.222,30.731,52.78,30.729l0.801-0.006c50.353-0.707,75.745,25.622,78.57,51.707
	c2.637,24.325-13.705,53.13-56.154,62.439C212.04,183.141,162.121,187.495,118.398,187.495 M91.972,10.79
	c-9.457,0-19.75,2.236-31.467,6.836C29.527,29.788,11.892,53.421,10.849,84.174c-1.194,35.219,19.728,72.105,48.665,85.795
	l0.724,0.414c2.119,1.438,12.574,6.127,58.157,6.127c43.033,0,91.872-4.131,108.788-7.838c35.907-7.875,49.845-31.104,47.729-50.635
	c-2.303-21.242-24.162-42.699-67.683-42.07l-0.951,0.008c-28.193,0.001-44.673-17.331-60.607-34.091
	C130.467,25.893,116.107,10.79,91.972,10.79"/>
<path fill="#FAF393" d="M144.065,106.604c0,19.204-15.569,34.771-34.772,34.771c-19.204,0-34.772-15.567-34.772-34.771
	c0-19.205,15.568-34.772,34.772-34.772C128.496,71.831,144.065,87.398,144.065,106.604"/>
<path fill="#5F3811" d="M109.292,146.776c-22.152,0-40.172-18.022-40.172-40.173c0-22.152,18.021-40.173,40.172-40.173
	s40.172,18.021,40.172,40.173C149.464,128.754,131.444,146.776,109.292,146.776 M109.292,77.231
	c-16.195,0-29.371,13.176-29.371,29.373c0,16.194,13.175,29.37,29.371,29.37s29.372-13.176,29.372-29.37
	C138.664,90.407,125.487,77.231,109.292,77.231"/>
</svg>
