<?xml version="1.0" encoding="utf-8"?>
<!-- Generator: Adobe Illustrator 12.0.0, SVG Export Plug-In . SVG Version: 6.00 Build 51448)  -->
<!DOCTYPE svg PUBLIC "-//W3C//DTD SVG 1.1//EN" "http://www.w3.org/Graphics/SVG/1.1/DTD/svg11.dtd" [
	<!ENTITY ns_svg "http://www.w3.org/2000/svg">
	<!ENTITY ns_xlink "http://www.w3.org/1999/xlink">
]>
<svg  version="1.1" id="レイヤー_1" xmlns="&ns_svg;" xmlns:xlink="&ns_xlink;" width="298.636" height="129.608"
	 viewBox="0 0 298.636 129.608" overflow="visible" enable-background="new 0 0 298.636 129.608" xml:space="preserve">
<path fill="#5A3D1C" d="M282.396,64.805c8.053-13.894,13.347-31.525,16.161-53.778c0.353-2.786-0.504-5.585-2.353-7.68
	C294.333,1.22,291.646,0,288.838,0c-1.486,0-2.927,0.335-4.283,0.996c-25.915,12.612-48.75,30.194-67.866,52.257
	c-0.471,0.543-0.908,1.116-1.308,1.719h-13.146V22.706c0-5.422-4.41-9.833-9.831-9.833c-5.424,0-9.834,4.411-9.834,9.833v32.266
	h-21.456V9.833c0-5.422-4.41-9.833-9.834-9.833c-5.421,0-9.833,4.412-9.833,9.833v45.138h-21.455V22.706
	c0-5.422-4.412-9.833-9.833-9.833s-9.833,4.411-9.833,9.833v32.266H78.87V14.084c0-6.004-4.893-10.889-10.906-10.89
	c-2.41,0-4.707,0.794-6.642,2.297L9.258,45.9C3.375,50.465,0,57.356,0,64.805c0,7.447,3.375,14.338,9.258,18.904l52.064,40.409
	c1.936,1.502,4.232,2.296,6.642,2.296c6.014,0,10.906-4.885,10.906-10.889V74.639h21.455v32.265c0,5.421,4.412,9.834,9.833,9.834
	s9.833-4.413,9.833-9.834V74.639h21.455v45.136c0,5.424,4.412,9.834,9.833,9.834c5.424,0,9.834-4.41,9.834-9.834V74.639h21.456
	v32.265c0,5.421,4.41,9.834,9.834,9.834c5.421,0,9.831-4.413,9.831-9.834V74.639h13.146c0.399,0.6,0.837,1.174,1.308,1.716
	C235.805,98.42,258.64,116,284.555,128.613c1.356,0.66,2.799,0.995,4.283,0.995c2.808,0,5.495-1.221,7.369-3.346
	c1.847-2.096,2.703-4.895,2.351-7.68C295.743,96.328,290.449,78.698,282.396,64.805z M45.047,37.623
	c-5.05,0-9.158,4.109-9.158,9.158c0,5.051,4.108,9.159,9.158,9.159s9.158-4.108,9.158-9.159
	C54.205,41.732,50.097,37.623,45.047,37.623z"/>
<g id="XMLID_251_">
	<g>
		<path fill="#9C98EA" d="M291.491,7.499c0.663,0.754,0.96,1.726,0.834,2.743c-2.868,22.638-8.33,40.19-16.718,53.652
			c-0.343,0.56-0.343,1.257,0,1.816c8.388,13.462,13.85,31.015,16.718,53.663c0.126,1.006-0.171,1.978-0.834,2.731
			c-0.686,0.777-1.646,1.223-2.651,1.223c-0.525,0-1.039-0.126-1.531-0.365c-25.151-12.239-47.31-29.301-65.867-50.727
			c-3.68-4.24-3.68-10.628,0-14.867c18.558-21.415,40.716-38.488,65.867-50.727c0.492-0.24,1.006-0.354,1.531-0.354
			C289.846,6.287,290.806,6.733,291.491,7.499z"/>
		<path fill="#9C98EA" d="M72.587,14.081v101.441c0,2.846-2.4,4.605-4.628,4.605c-0.994,0-1.965-0.332-2.788-0.972L13.107,78.749
			c-4.331-3.371-6.822-8.457-6.822-13.941c0-5.497,2.491-10.57,6.822-13.942l52.063-40.407c0.823-0.64,1.794-0.983,2.788-0.983
			C70.188,9.476,72.587,11.235,72.587,14.081z"/>
	</g>
	<g>
	</g>
</g>
<g id="XMLID_249_">
	<g>
		<path fill="#5A3D1C" d="M45.047,41.05c3.154,0,5.726,2.571,5.726,5.736c0,3.154-2.571,5.726-5.726,5.726
			c-3.165,0-5.725-2.572-5.725-5.726C39.322,43.621,41.882,41.05,45.047,41.05z"/>
	</g>
	<g>
	</g>
</g>
<g id="XMLID_245_">
	<g>
		<path fill="#D8D8D8" d="M199.375,61.253h16.318c-0.561,2.332-0.561,4.766,0,7.097h-16.318V61.253z"/>
		<path fill="#D8D8D8" d="M195.946,22.708v84.198c0,1.954-1.588,3.542-3.542,3.542s-3.555-1.588-3.555-3.542V22.708
			c0-1.954,1.601-3.554,3.555-3.554S195.946,20.754,195.946,22.708z"/>
		<rect x="158.259" y="61.253" fill="#D8D8D8" width="27.163" height="7.097"/>
		<path fill="#D8D8D8" d="M154.831,9.83v109.944c0,1.954-1.601,3.554-3.555,3.554c-1.954,0-3.542-1.6-3.542-3.554V9.83
			c0-1.954,1.589-3.542,3.542-3.542C153.23,6.287,154.831,7.876,154.831,9.83z"/>
		<rect x="117.131" y="61.253" fill="#D8D8D8" width="27.174" height="7.097"/>
		<path fill="#D8D8D8" d="M113.703,22.708v84.198c0,1.954-1.588,3.542-3.542,3.542s-3.554-1.588-3.554-3.542V22.708
			c0-1.954,1.6-3.554,3.554-3.554S113.703,20.754,113.703,22.708z"/>
		<rect x="76.016" y="61.253" fill="#D8D8D8" width="27.163" height="7.097"/>
	</g>
	<g>
	</g>
</g>
</svg>
