<?xml version="1.0" encoding="utf-8"?>
<!-- Generator: Adobe Illustrator 12.0.0, SVG Export Plug-In . SVG Version: 6.00 Build 51448)  -->
<!DOCTYPE svg PUBLIC "-//W3C//DTD SVG 1.1//EN" "http://www.w3.org/Graphics/SVG/1.1/DTD/svg11.dtd" [
	<!ENTITY ns_svg "http://www.w3.org/2000/svg">
	<!ENTITY ns_xlink "http://www.w3.org/1999/xlink">
]>
<svg  version="1.1" id="レイヤー_1" xmlns="&ns_svg;" xmlns:xlink="&ns_xlink;" width="297.512" height="246.017"
	 viewBox="0 0 297.512 246.017" overflow="visible" enable-background="new 0 0 297.512 246.017" xml:space="preserve">
<path fill="#FFDFB3" d="M292.458,173.665c0,32.427-53.009,55.828-118.393,55.828c-65.386,0-118.393-23.401-118.393-55.828
	c0-32.425,53.007-58.713,118.393-58.713C239.449,114.952,292.458,141.24,292.458,173.665"/>
<path fill="#5F3811" d="M287.405,173.665c-0.628,29.138-41.711,40.972-64.174,45.898c-38.474,8.438-81.502,6.945-118.898-5.648
	c-20.87-7.027-53.964-25.681-40.492-52.521c6.106-12.166,18.963-19.975,30.768-25.713c16.847-8.189,35.874-12.277,54.382-14.358
	c31.661-3.558,64.795-0.702,94.807,10.254C261.743,138.129,286.931,151.64,287.405,173.665c0.139,6.508,10.247,6.521,10.105,0
	c-0.588-27.384-28.518-43.263-51.026-51.833c-36.107-13.746-77.651-14.82-115.326-8.033c-27.343,4.926-61.781,16.422-76.045,42.495
	c-12.624,23.073,3.578,44.91,23.168,56.821c18.25,11.099,40.206,16.38,61.164,19.139c25.773,3.394,51.878,2.947,77.529-1.239
	c29.688-4.848,79.728-19.759,80.537-57.35C297.652,167.144,287.543,167.157,287.405,173.665"/>
<path fill="#F4C392" d="M292.458,146.233c0,32.426-53.009,55.828-118.393,55.828c-65.386,0-118.393-23.402-118.393-55.828
	c0-32.426,53.007-58.715,118.393-58.715C239.449,87.519,292.458,113.807,292.458,146.233"/>
<path fill="#5F3811" d="M287.405,146.233c-0.628,29.137-41.711,40.972-64.174,45.897c-38.474,8.437-81.502,6.944-118.898-5.648
	c-20.87-7.027-53.964-25.681-40.492-52.52c6.106-12.167,18.963-19.975,30.768-25.714c16.847-8.189,35.874-12.277,54.382-14.357
	c31.661-3.56,64.795-0.703,94.807,10.254C261.743,110.697,286.931,124.206,287.405,146.233c0.139,6.507,10.247,6.521,10.105,0
	c-0.588-27.383-28.518-43.263-51.026-51.833c-36.107-13.747-77.651-14.821-115.326-8.034c-27.343,4.926-61.781,16.423-76.045,42.495
	c-12.624,23.074,3.578,44.91,23.168,56.821c18.25,11.099,40.206,16.381,61.164,19.138c25.773,3.394,51.878,2.948,77.529-1.238
	c29.688-4.848,79.728-19.76,80.537-57.349C297.652,139.712,287.543,139.726,287.405,146.233"/>
<path fill="#FFDFB3" d="M292.458,120.245c0,32.426-53.009,55.828-118.393,55.828c-65.386,0-118.393-23.401-118.393-55.828
	c0-32.427,53.007-58.714,118.393-58.714C239.449,61.53,292.458,87.818,292.458,120.245"/>
<path fill="#5F3811" d="M287.405,120.245c-0.628,29.137-41.711,40.973-64.174,45.898c-38.474,8.437-81.502,6.945-118.898-5.649
	c-20.87-7.025-53.964-25.678-40.492-52.52c6.106-12.167,18.963-19.975,30.768-25.712c16.847-8.19,35.874-12.278,54.382-14.358
	c31.661-3.559,64.795-0.703,94.807,10.254C261.743,84.708,286.931,98.218,287.405,120.245c0.139,6.508,10.247,6.52,10.105,0
	c-0.588-27.382-28.518-43.263-51.026-51.833c-36.107-13.747-77.651-14.821-115.326-8.034c-27.343,4.925-61.781,16.423-76.045,42.495
	c-12.624,23.074,3.578,44.91,23.168,56.822c18.25,11.098,40.206,16.379,61.164,19.137c25.773,3.395,51.878,2.948,77.529-1.238
	c29.688-4.847,79.728-19.76,80.537-57.349C297.652,113.723,287.543,113.736,287.405,120.245"/>
<path fill="#F4C392" d="M292.458,92.813c0,32.426-53.009,55.828-118.393,55.828c-65.386,0-118.393-23.402-118.393-55.828
	c0-32.425,53.007-58.715,118.393-58.715C239.449,34.098,292.458,60.387,292.458,92.813"/>
<path fill="#5F3811" d="M287.405,92.813c-0.628,29.138-41.711,40.972-64.174,45.896c-38.474,8.438-81.502,6.945-118.898-5.647
	c-20.87-7.028-53.964-25.68-40.492-52.521c6.106-12.167,18.963-19.975,30.768-25.713c16.847-8.189,35.874-12.278,54.382-14.358
	c31.661-3.558,64.795-0.702,94.807,10.254C261.743,57.276,286.931,70.787,287.405,92.813c0.139,6.507,10.247,6.521,10.105,0
	c-0.588-27.383-28.518-43.263-51.026-51.834c-36.107-13.746-77.651-14.821-115.326-8.033c-27.343,4.926-61.781,16.423-76.045,42.496
	c-12.624,23.074,3.578,44.909,23.168,56.821c18.25,11.097,40.206,16.379,61.164,19.137c25.773,3.395,51.878,2.948,77.529-1.238
	c29.688-4.848,79.728-19.76,80.537-57.349C297.652,86.291,287.543,86.305,287.405,92.813"/>
<path fill="#FFDFB3" d="M292.458,63.936c0,32.426-53.009,58.715-118.393,58.715c-65.386,0-118.393-26.289-118.393-58.715
	S108.679,5.221,174.065,5.221C239.449,5.221,292.458,31.51,292.458,63.936"/>
<path fill="#5F3811" d="M287.405,63.936c-0.634,29.413-41.272,42.737-64.174,48.246c-38.504,9.262-81.647,7.442-118.898-6.158
	C83.465,98.407,50.391,78.461,63.84,51.666c6.106-12.168,18.963-19.976,30.768-25.714c16.847-8.189,35.874-12.277,54.382-14.357
	c31.661-3.559,64.795-0.703,94.807,10.254C261.743,28.4,286.931,41.911,287.405,63.936c0.139,6.508,10.247,6.521,10.105,0
	c-0.588-27.382-28.518-43.263-51.026-51.833C210.376-1.645,168.833-2.718,131.158,4.069c-27.343,4.925-61.781,16.423-76.045,42.495
	c-12.708,23.228,3.849,45.446,23.168,57.927c18.405,11.889,40.734,17.7,62.177,20.826c25.375,3.699,51.295,3.029,76.515-1.513
	c30.136-5.429,79.728-22.125,80.537-59.868C297.652,57.415,287.543,57.429,287.405,63.936"/>
<path fill="#FAF393" d="M212.846,64.487c0,6.742-5.467,12.207-12.208,12.207h-55.202c-6.742,0-12.208-5.465-12.208-12.207V44.586
	c0-6.742,5.465-12.207,12.208-12.207h55.202c6.741,0,12.208,5.464,12.208,12.207V64.487z"/>
<path fill="#5F3811" d="M218.103,63.94c0,9.533-7.729,17.261-17.262,17.261h-54.859c-9.532,0-17.261-7.728-17.261-17.261v-20.31
	c0-9.533,7.729-17.26,17.261-17.26h54.859c9.533,0,17.262,7.728,17.262,17.26V63.94z M209.09,44.04c0-3.951-3.204-7.153-7.154-7.153
	h-55.544c-3.951,0-7.154,3.203-7.154,7.153v20.243c0,3.95,3.203,7.154,7.154,7.154h55.544c3.95,0,7.154-3.204,7.154-7.154V44.04z"/>
<path fill="#AFDD83" d="M43.112,137.245l-0.417,0.076c-5.418,0.98-9.016,6.167-8.035,11.583l0.294,1.639l-2.373-2.606
	c-3.706-4.068-10.01-4.363-14.081-0.656l-0.314,0.287c-4.07,3.708-4.364,10.012-0.658,14.083l2.829,3.104l-2.372-0.66
	c-5.303-1.48-10.8,1.618-12.28,6.921l-0.115,0.408c-1.479,5.305,1.621,10.805,6.921,12.283l30.647,8.548
	c4.534,1.268,9.203-0.823,11.387-4.769c4.132-1.809,6.646-6.263,5.809-10.895l-5.662-31.31
	C53.717,139.863,48.529,136.267,43.112,137.245"/>
<path fill="#5F3811" d="M41.769,132.373c-9.603,1.72-13.255,10.8-11.688,19.512c2.815-1.639,5.63-3.279,8.446-4.918
	c-6.578-7.219-15.861-10.287-23.915-2.974c-8.319,7.556-4.093,17.458,2.171,24.334c1.639-2.815,3.279-5.631,4.918-8.446
	c-9.355-2.606-17.238,0.498-20.87,9.789c-3.122,7.985,2.994,16.858,10.642,18.992c5.904,1.646,11.807,3.294,17.71,4.941
	c4.778,1.332,10.829,4.161,15.919,4.045c8.649-0.195,17.471-7.702,20.062-15.846c1.525-4.79-0.928-12.042-1.787-16.788
	c-2.255-12.474-2.251-34.237-20.266-32.823c-6.453,0.507-6.502,10.617,0,10.106c5.725-0.449,6.552,3.453,7.33,7.762
	c0.821,4.532,1.639,9.065,2.459,13.598c0.706,3.897,1.409,7.797,2.115,11.694c0.914,5.058-2.862,8.935-6.991,11.701
	c-2.152,1.442-6.71-0.561-8.827-1.151c-4.678-1.306-9.356-2.611-14.033-3.915c-3.544-0.99-7.09-1.979-10.636-2.967
	c-2.983-0.832-4.625-3.028-4.066-6.254c0.811-4.681,5.361-4.026,8.551-3.14c5.043,1.404,8.245-4.794,4.917-8.446
	c-2.703-2.967-5.79-6.009-2.171-10.038c3.486-3.887,7.331,0.46,9.62,2.974c3.693,4.052,9.275-0.314,8.447-4.918
	c-0.642-3.564,0.752-6.384,4.629-7.078C50.865,140.971,48.14,131.232,41.769,132.373"/>
<path fill="#F77F7F" d="M87.136,164.835c15.841,17.389,27.447,56.048,11.53,70.547s-53.327-0.653-69.169-18.045
	c-15.841-17.39-4.111-30.431,11.805-44.931C57.219,157.908,71.295,147.444,87.136,164.835"/>
<path fill="#5F3811" d="M83.562,168.407c11.39,12.926,18.392,31.725,17.551,48.967c-1.006,20.646-21.355,20.536-36.646,15.774
	c-14.467-4.504-44.806-20.356-35.388-39.405c4.789-9.688,15.184-17.542,23.31-24.314c4.192-3.496,8.845-6.563,14.101-8.144
	C73.347,159.221,79.092,163.791,83.562,168.407c4.541,4.689,11.681-2.464,7.147-7.147c-9.672-9.987-20.706-13.044-33.511-7.154
	c-6.536,3.008-12.244,8.288-17.568,13.009c-5.666,5.022-11.433,10.266-15.918,16.402c-8.16,11.167-8.751,23.057-0.348,34.306
	c7.359,9.847,18.774,16.824,29.825,21.761c19.084,8.523,46.569,11.92,55.951-11.43c4.215-10.491,2.035-23.389-0.854-33.895
	c-3.308-12.032-9.325-23.631-17.576-32.999C86.394,156.362,79.273,163.538,83.562,168.407"/>
<path fill="#FEFDF8" d="M53.901,195.352c2.619,2.874,2.77,6.998,0.337,9.215c-2.431,2.215-6.524,1.68-9.142-1.193
	c-2.617-2.873-2.77-6.999-0.336-9.213C47.191,191.943,51.285,192.478,53.901,195.352"/>
<path fill="#FEFDF8" d="M82.859,209.989c2.617,2.873,2.768,6.998,0.335,9.213c-2.431,2.215-6.524,1.681-9.142-1.192
	c-2.617-2.873-2.77-7-0.337-9.215C76.147,206.58,80.242,207.113,82.859,209.989"/>
<path fill="#FEFDF8" d="M79.138,180.176c2.619,2.874,2.77,6.997,0.337,9.214c-2.433,2.216-6.525,1.68-9.142-1.193
	c-2.619-2.872-2.77-6.998-0.337-9.213C72.428,176.768,76.521,177.302,79.138,180.176"/>
</svg>
